# xmcd CD database file
#
# Track frame offsets:
#	150
#	26060
#	49530
#	71172
#	94020
#	114860
#	152110
#	161020
#	186637
#	207440
#	230222
#	251110
#
# Disc length: 3788 seconds
#
# Revision: 2
# Processed by: cddbd v1.5PL3 Copyright (c) Steve Scherf et al.
# Submitted via: CDex 1.51
#
DISCID=ad0eca0c
DTITLE=Jimmy Bruno - Burnin'
DYEAR=1994
DGENRE=Jazz
TTITLE0=Eternal Triangle
TTITLE1=Pastel
TTITLE2=One For Amos
TTITLE3=Love Is Here To Stay
TTITLE4=Burnin'
TTITLE5=Moonlight In Vermont
TTITLE6=Central Park West
TTITLE7=Giant Steps
TTITLE8=Witchcraft
TTITLE9=On The Sunny Side Of The Street
TTITLE10=A Rose For Peg
TTITLE11=That's All
EXTD=YEAR: 1994
EXTT0=
EXTT1=
EXTT2=
EXTT3=
EXTT4=
EXTT5=
EXTT6=
EXTT7=John Coltrane\n
EXTT8=
EXTT9=
EXTT10=
EXTT11=
PLAYORDER=
